# xmcd
#
# Track frame offsets:
#	150
#	15625
#	31031
#	48714
#	65628
#	80316
#	97815
#	114348
#	131864
#	147490
#	164686
#	182458
#	200154
#	227307
#	272937
#
# Disc length: 4102 seconds
#
# Revision: 2
# Processed by: cddbd v1.5.2PL0 Copyright (c) Steve Scherf et al.
# Submitted via: audiograbber 1.83.01
#
DISCID=cf10040f
DTITLE=Vanilla Ninja - Traces of sadness
DYEAR=2004
DGENRE=Rock
TTITLE0=Tough enogh
TTITLE1=Trace of sadness
TTITLE2=Stay
TTITLE3=When the Indians cry
TTITLE4=Don't go too fast
TTITLE5=Heartless
TTITLE6=Liar
TTITLE7=Don't you realize
TTITLE8=Wherever
TTITLE9=Metal queen
TTITLE10=Looking for a hero
TTITLE11=Destroyed by you
TTITLE12=Trace of sadness (Extended version)
TTITLE13=Heartless (Extended version)
TTITLE14=DATA
EXTD=kuulata ju võib vahelduseks
EXTT0=
EXTT1=
EXTT2=
EXTT3=
EXTT4=
EXTT5=
EXTT6=
EXTT7=
EXTT8=
EXTT9=
EXTT10=
EXTT11=
EXTT12=
EXTT13=
EXTT14=
PLAYORDER=
